<?xml version="1.0" encoding="iso-8859-1"?>
<svg fill="#AAB7B8" height="800px" width="800px" version="1.1" id="Layer_1" xmlns="http://www.w3.org/2000/svg" xmlns:xlink="http://www.w3.org/1999/xlink" 
	 viewBox="0 0 512.035 512.035" xml:space="preserve">
<g>
	<g>
		<path d="M510.569,499.235l-158.72-243.2l158.72-243.2c1.707-3.413,1.707-7.68-0.853-10.24c-2.56-2.56-5.973-3.413-9.387-1.707
			L5.396,248.355c-3.413,1.707-5.12,4.267-5.12,7.68s1.707,5.973,5.12,7.68l494.933,247.467c0.853,0.853,1.707,0.853,3.413,0.853
			c2.56,0,5.12-0.853,5.973-2.56C512.276,506.915,512.276,502.648,510.569,499.235z M27.583,256.035L478.996,29.901L333.929,250.915
			c-1.707,2.56-1.707,6.827,0,9.387l145.067,221.013L27.583,256.035z"/>
	</g>
</g>
</svg>